# File created by Blade
# Date/Time:  Wed Apr 08 14:55:03 2015
# Frame Rate: 120.000 fps
#------------------------------------------------------
:FULLY-SPECIFIED
:DEGREES
2309
root 3.433943 33.766248 1.820353 48.055248 -11.703757 -27.590539
Spine -12.548334 3.436979 5.038815
Head -20.151176 5.973080 25.258522
LeftShoulder -14.683161 37.697727 19.043782
LeftArm 66.688353 -5.881403 -81.771582
LeftForeArm -4.532571 -0.000000 134.135085
LeftHand 10.311155 -0.000000 0.057233
LeftHandThumb1 -26.253704 0.000000 33.147579
RightShoulder -0.985947 -1.810188 -17.042851
RightArm 13.878507 -25.817975 83.719764
RightForeArm 1.464005 0.000000 123.749570
RightHand 12.475139 -0.000000 -3.048545
RightHandThumb1 -24.326973 -0.000000 -32.862282
LeftUpLeg -48.161997 0.672060 34.855405
LeftLeg 13.508372 -0.000000 -0.000000
LeftFoot -3.566676 32.537870 -4.323880
LeftToeBase -7.097776 -0.000000 0.000000
RightUpLeg -19.410797 -13.452516 8.592911
RightLeg 101.406108 -0.000000 -0.000000
RightFoot -13.272439 -7.993714 23.966267
RightToeBase 10.723605 -0.000000 -0.000000
2310
root 3.403335 33.771995 1.832819 47.383326 -11.672480 -27.065166
Spine -12.500349 3.304300 5.142862
Head -19.912039 5.783247 24.630666
LeftShoulder -14.902254 37.963537 18.735828
LeftArm 66.132772 -5.972349 -81.725878
LeftForeArm -4.695855 0.000000 134.227583
LeftHand 10.389720 0.000000 0.053468
LeftHandThumb1 -26.253704 0.000000 33.147579
RightShoulder -0.961571 -1.953912 -17.150768
RightArm 13.982243 -26.162820 84.106789
RightForeArm 1.669442 0.000000 123.558657
RightHand 12.769017 -0.000000 -2.977552
RightHandThumb1 -24.326973 -0.000000 -32.862282
LeftUpLeg -47.692427 0.122402 34.472072
LeftLeg 13.085468 -0.000000 -0.000000
LeftFoot -3.162232 32.399461 -4.035830
LeftToeBase -7.216607 -0.000000 0.000000
RightUpLeg -19.578111 -12.766948 9.175155
RightLeg 98.306995 -0.000000 -0.000000
RightFoot -13.434697 -7.067025 24.217500
RightToeBase 10.262558 -0.000000 -0.000000
2311
root 3.375145 33.776434 1.845257 46.684742 -11.638452 -26.546185
Spine -12.419838 3.148293 5.262836
Head -19.655726 5.619603 24.014636
LeftShoulder -15.075872 38.227951 18.474672
LeftArm 65.508815 -6.057525 -81.739557
LeftForeArm -4.861106 -0.000000 134.319973
LeftHand 10.386924 -0.000000 0.000473
LeftHandThumb1 -26.253704 0.000000 33.147579
RightShoulder -0.946037 -2.040052 -17.260574
RightArm 14.056469 -26.538758 84.457675
RightForeArm 1.687565 0.000000 123.387836
RightHand 12.788668 -0.000000 -3.173940
RightHandThumb1 -24.326973 -0.000000 -32.862282
LeftUpLeg -47.173982 -0.462932 34.106814
LeftLeg 12.628657 -0.000000 -0.000000
LeftFoot -2.792666 32.293410 -3.776553
LeftToeBase -7.277688 -0.000000 0.000000
RightUpLeg -19.663736 -12.081831 9.694311
RightLeg 95.034759 -0.000000 -0.000000
RightFoot -13.490793 -6.384357 24.485938
RightToeBase 9.947190 -0.000000 -0.000000
2312
root 3.346076 33.780102 1.858159 45.969817 -11.616838 -26.051043
Spine -12.306680 3.013698 5.389382
Head -19.432242 5.466072 23.411678
LeftShoulder -15.287646 38.523963 18.159379
LeftArm 64.919634 -6.167412 -81.716258
LeftForeArm -5.068258 -0.000000 134.345971
LeftHand 10.427635 0.000000 0.091080
LeftHandThumb1 -26.253704 0.000000 33.147579
RightShoulder -0.965083 -2.116556 -17.374851
RightArm 14.186925 -26.980493 84.696862
RightForeArm 1.666207 -0.000000 123.182207
RightHand 12.835935 -0.000000 -3.314359
RightHandThumb1 -24.326973 -0.000000 -32.862282
LeftUpLeg -46.599666 -0.914532 33.630631
LeftLeg 12.151722 -0.000000 -0.000000
LeftFoot -2.454425 32.098154 -3.453871
LeftToeBase -7.395420 -0.000000 0.000000
RightUpLeg -19.652980 -11.355343 10.143237
RightLeg 91.605682 -0.000000 -0.000000
RightFoot -13.533529 -5.805860 25.046452
RightToeBase 9.122510 -0.000000 -0.000000
2313
root 3.320515 33.783035 1.870945 45.270266 -11.611521 -25.571105
Spine -12.192090 2.897975 5.517914
Head -19.240050 5.301292 22.804206
LeftShoulder -15.505082 38.795924 17.831210
LeftArm 64.278968 -6.265095 -81.691385
LeftForeArm -5.358237 -0.000000 134.362842
LeftHand 10.441137 -0.000000 0.139588
LeftHandThumb1 -26.253704 0.000000 33.147579
RightShoulder -0.978784 -2.150120 -17.510108
RightArm 14.201784 -27.346376 85.004881
RightForeArm 1.379515 -0.000000 122.984070
RightHand 12.853116 -0.000000 -3.434167
RightHandThumb1 -24.326973 -0.000000 -32.862282
LeftUpLeg -46.007624 -1.338459 33.141209
LeftLeg 11.667346 -0.000000 -0.000000
LeftFoot -2.134222 31.909912 -3.137853
LeftToeBase -7.344258 -0.000000 0.000000
RightUpLeg -19.590717 -10.590550 10.519433
RightLeg 88.052347 -0.000000 -0.000000
RightFoot -13.543666 -5.228477 25.950437
RightToeBase 8.856700 -0.000000 -0.000000
2314
root 3.293577 33.783923 1.884211 44.551135 -11.610693 -25.113238
Spine -12.054992 2.807875 5.650851
Head -19.038346 5.171575 22.182494
LeftShoulder -15.720927 39.095366 17.484808
LeftArm 63.662632 -6.359321 -81.615953
LeftForeArm -5.654018 -0.000000 134.323399
LeftHand 10.387542 0.000000 0.292260
LeftHandThumb1 -26.253704 0.000000 33.147579
RightShoulder -1.002167 -2.182583 -17.652586
RightArm 14.171534 -27.666699 85.351158
RightForeArm 1.225808 -0.000000 122.776561
RightHand 12.908231 -0.000000 -3.298417
RightHandThumb1 -24.326973 -0.000000 -32.862282
LeftUpLeg -45.357373 -1.627871 32.557264
LeftLeg 11.161899 -0.000000 -0.000000
LeftFoot -1.872244 31.573460 -2.849795
LeftToeBase -7.445571 -0.000000 0.000000
RightUpLeg -19.446273 -9.795542 10.853653
RightLeg 84.364111 -0.000000 -0.000000
RightFoot -13.400460 -4.815545 26.924392
RightToeBase 8.719312 -0.000000 -0.000000
2315
root 3.271294 33.783502 1.894889 43.854520 -11.658029 -24.641880
Spine -11.931564 2.708652 5.743194
Head -18.821233 5.032004 21.577856
LeftShoulder -16.029167 39.487263 17.079664
LeftArm 63.143862 -6.419465 -81.556728
LeftForeArm -5.911743 -0.000000 134.230464
LeftHand 10.436832 -0.000000 0.398081
LeftHandThumb1 -26.253704 0.000000 33.147579
RightShoulder -0.994269 -2.289594 -17.793695
RightArm 14.237679 -27.961339 85.576081
RightForeArm 0.926506 -0.000000 122.569361
RightHand 12.857362 0.000000 -3.285408
RightHandThumb1 -24.326973 -0.000000 -32.862282
LeftUpLeg -44.706715 -1.876065 31.927293
LeftLeg 10.642460 -0.000000 -0.000000
LeftFoot -1.597563 31.230817 -2.586565
LeftToeBase -7.468249 -0.000000 0.000000
RightUpLeg -19.260919 -8.977741 11.082945
RightLeg 80.575608 -0.000000 -0.000000
RightFoot -13.181865 -4.467160 28.080216
RightToeBase 8.639690 -0.000000 -0.000000
2316
root 3.250871 33.782016 1.906147 43.185239 -11.699836 -24.175888
Spine -11.851225 2.644346 5.829744
Head -18.591603 4.870512 20.998273
LeftShoulder -16.309013 39.851004 16.709761
LeftArm 62.630332 -6.424558 -81.513323
LeftForeArm -5.995868 -0.000000 134.102600
LeftHand 10.430055 -0.000000 0.335359
LeftHandThumb1 -26.253704 0.000000 33.147579
RightShoulder -0.980795 -2.397874 -17.920212
RightArm 14.242212 -28.195641 85.725716
RightForeArm 0.834739 0.000000 122.387629
RightHand 12.953134 -0.000000 -3.414896
RightHandThumb1 -24.326973 -0.000000 -32.862282
LeftUpLeg -44.067525 -2.103743 31.302880
LeftLeg 10.102952 -0.000000 -0.000000
LeftFoot -1.276041 30.926536 -2.362120
LeftToeBase -7.701341 -0.000000 0.000000
RightUpLeg -19.042020 -8.206289 11.263850
RightLeg 76.650148 -0.000000 -0.000000
RightFoot -12.791904 -4.203055 29.350412
RightToeBase 8.715383 -0.000000 -0.000000
2317
root 3.228943 33.780651 1.914813 42.566295 -11.740170 -23.721486
Spine -11.834438 2.584378 5.914131
Head -18.291923 4.701177 20.414355
LeftShoulder -16.597249 40.217858 16.341391
LeftArm 62.076236 -6.410309 -81.415533
LeftForeArm -6.041260 -0.000000 133.942508
LeftHand 10.467722 -0.000000 0.403737
LeftHandThumb1 -26.253704 0.000000 33.147579
RightShoulder -0.951010 -2.470178 -18.055899
RightArm 14.114997 -28.365199 85.968348
RightForeArm 0.930460 -0.000000 122.197700
RightHand 12.870826 0.000000 -3.216182
RightHandThumb1 -24.326973 -0.000000 -32.862282
LeftUpLeg -43.464503 -2.268481 30.677842
LeftLeg 9.564174 -0.000000 -0.000000
LeftFoot -0.953845 30.601000 -2.153432
LeftToeBase -7.947219 -0.000000 0.000000
RightUpLeg -18.793289 -7.412185 11.387571
RightLeg 72.628660 -0.000000 -0.000000
RightFoot -12.345926 -3.795708 30.890165
RightToeBase 9.247849 -0.000000 -0.000000
2318
root 3.209961 33.776668 1.919593 41.985431 -11.793614 -23.223738
Spine -11.865808 2.489194 5.954582
Head -17.991511 4.597679 19.813305
LeftShoulder -16.933799 40.575671 15.948791
LeftArm 61.510401 -6.383786 -81.298753
LeftForeArm -5.916399 -0.000000 133.751223
LeftHand 10.451876 -0.000000 0.506415
LeftHandThumb1 -26.253704 0.000000 33.147579
RightShoulder -0.898610 -2.556485 -18.219067
RightArm 14.007458 -28.530816 86.205497
RightForeArm 0.978527 -0.000000 121.893514
RightHand 13.043999 -0.000000 -3.035266
RightHandThumb1 -24.326973 -0.000000 -32.862282
LeftUpLeg -42.921785 -2.408058 30.018738
LeftLeg 9.055393 -0.000000 -0.000000
LeftFoot -0.667162 30.189274 -2.007112
LeftToeBase -8.071011 -0.000000 0.000000
RightUpLeg -18.545597 -6.690481 11.410529
RightLeg 68.565329 -0.000000 -0.000000
RightFoot -11.959892 -3.262512 32.129967
RightToeBase 9.317785 -0.000000 -0.000000
